# xmcd
#
# Track frame offsets: 
#        150
#        13414
#        29659
#        42043
#        54881
#        67627
#        82984
#        101680
#        116586
#        129620
#        141226
#        157440
#        170406
#        181571
#
# Disc length: 2557 seconds
#
# Revision: 0
# Processed by: cddbd v1.5.2PL0 Copyright (c) Steve Scherf et al.
# Submitted via: ExactAudioCopy v0.95b4
#
DISCID=b709fb0e
DTITLE=Cowboy Allen Folse - Strait Back To You
DYEAR=2007
DGENRE=Country
TTITLE0=Strait Back To You
TTITLE1=Don't Close Your Eyes
TTITLE2=Angel In The Corner
TTITLE3=It's A Heartache
TTITLE4=Merry Go Round
TTITLE5=America Stands
TTITLE6=Nuthin
TTITLE7=When Im Thinkin Of You
TTITLE8=I Found A Way
TTITLE9=Double Standard Time
TTITLE10=Tennessee Country
TTITLE11=The Ride
TTITLE12=Another
TTITLE13=Night Calls
EXTD=
EXTT0=
EXTT1=
EXTT2=
EXTT3=
EXTT4=
EXTT5=
EXTT6=
EXTT7=
EXTT8=
EXTT9=
EXTT10=
EXTT11=
EXTT12=
EXTT13=
PLAYORDER=
